<?xml version="1.0" encoding="UTF-8" standalone="no"?>
<!-- Created with Inkscape (http://www.inkscape.org/) -->

<svg
   xmlns:dc="http://purl.org/dc/elements/1.1/"
   xmlns:cc="http://creativecommons.org/ns#"
   xmlns:rdf="http://www.w3.org/1999/02/22-rdf-syntax-ns#"
   xmlns:svg="http://www.w3.org/2000/svg"
   xmlns="http://www.w3.org/2000/svg"
   xmlns:sodipodi="http://sodipodi.sourceforge.net/DTD/sodipodi-0.dtd"
   xmlns:inkscape="http://www.inkscape.org/namespaces/inkscape"
   width="210mm"
   height="297mm"
   viewBox="0 0 744.09448819 1052.3622047"
   id="svg2"
   version="1.1"
   inkscape:version="0.91 r13725"
   sodipodi:docname="icon.svg">
  <defs
     id="defs4" />
  <sodipodi:namedview
     id="base"
     pagecolor="#ffffff"
     bordercolor="#666666"
     borderopacity="1.0"
     inkscape:pageopacity="0.0"
     inkscape:pageshadow="2"
     inkscape:zoom="0.7"
     inkscape:cx="574.29601"
     inkscape:cy="327.81387"
     inkscape:document-units="px"
     inkscape:current-layer="layer1"
     showgrid="false"
     inkscape:window-width="1366"
     inkscape:window-height="674"
     inkscape:window-x="0"
     inkscape:window-y="27"
     inkscape:window-maximized="1" />
  <metadata
     id="metadata7">
    <rdf:RDF>
      <cc:Work
         rdf:about="">
        <dc:format>image/svg+xml</dc:format>
        <dc:type
           rdf:resource="http://purl.org/dc/dcmitype/StillImage" />
        <dc:title></dc:title>
      </cc:Work>
    </rdf:RDF>
  </metadata>
  <g
     inkscape:label="Capa 1"
     inkscape:groupmode="layer"
     id="layer1">
    <path
       style="fill:#000000"
       d="m 480.4143,602.12891 c 0.30756,-0.017 0.63892,-0.0166 1,0.004 3.71392,0.20561 10.65157,2.42248 28.88867,7.84375 l 27.98047,8.31836 0.27539,16.11914 0.27344,16.1211 -6.27344,3.70703 -6.27539,3.70508 -9.37695,-3.1836 c -6.74448,-2.29007 -9.12508,-3.22692 -10.08789,-1.66406 l 4.32031,1.38672 c 2.6725,0.85802 13.85938,4.33712 24.85938,7.73242 11,3.39531 20.04084,6.23334 20.08984,6.30664 0.0495,0.0733 -0.22487,2.60977 -0.60937,5.63477 -0.21473,1.68917 -0.35917,4.67105 -0.47071,7.31445 0.27819,5.25159 0.39425,13.79107 0.16016,21.43555 -0.3157,10.3125 -0.58008,24.15 -0.58008,30.75 l -0.01,12 -45.14844,21.8457 c -36.4412,17.63338 -45.65742,21.71958 -47.79102,21.18945 -1.4538,-0.36123 -3.76758,-0.85148 -5.14258,-1.08984 -1.6608,-0.28792 -11.0596,3.23147 -28,10.48633 l 0.004,0 c -14.025,6.00631 -27.19092,11.57874 -27.51172,11.61914 -10.70162,-4.91233 -21.11234,-11.6835 -30.80078,-17.36914 -7.2534,-4.29956 -15.74469,-9.26501 -18.87109,-11.03516 l -5.6836,-3.21875 -0.3164,-9.85351 -0.31641,-9.85547 18.25,-9.10547 18.25,-9.10742 0,-9.41407 0,-9.41406 26.38281,-21.33984 26.38282,-21.33789 4.4414,-12.5 4.44336,-12.5 11.57813,-6.28711 11.58007,-6.28711 11.74805,4.05078 c 6.4617,2.22808 11.85744,3.93244 11.99023,3.78711 0.0234,-0.0256 0.0253,0.27393 0.0195,0.67187 l 0.21875,-5.15625 -10.24024,-3.14062 -10.24219,-3.13867 -0.01,-15.16407 -0.01,-15.16601 5.01563,-3.08399 c 2.43936,-1.50093 3.46228,-2.49838 5.61523,-2.61718 z m 2.73633,1.92187 c -2.08993,-0.0939 -8.34546,3.25372 -8.36328,4.61719 -0.004,0.28018 11.3161,3.65518 25.1543,7.5 13.8381,3.84481 25.73013,7.55469 26.42773,8.24219 3.91211,-3.12305 1.72249,-1.4421 3.91211,-3.12305 1.6453,-1.22107 1.734,-1.5786 0.5,-2.00977 -0.825,-0.28826 -11.4,-3.66147 -23.5,-7.49804 -12.1,-3.83657 -22.79768,-7.28448 -23.77148,-7.66211 -0.0992,-0.0385 -0.22005,-0.0602 -0.35938,-0.0664 z m -10.86914,6.875 -0.53711,8.61719 c -0.295,4.73937 -0.5204,10.56954 -0.5,12.95703 l 0.0371,4.3418 25.5,8.40234 c 14.02499,4.62128 25.78888,8.4042 26.14258,8.4082 1.4028,0.0149 1.85742,-3.66378 1.85742,-15.04296 0,-6.97957 0.16375,-11.16274 0.68164,-12.9375 -4.1092,-0.47959 -17.47984,-3.89401 -45.68164,-12.4668 z m 6.78906,7.05274 c 0.10389,-0.0122 0.32755,0.10785 0.46094,0.14062 12.5086,3.07443 38.22441,12.16212 37.76953,13.34766 -0.28621,0.74569 -0.51953,4.41103 -0.51953,8.14453 l 0,6.78711 -20.50977,-6.61914 -20.50976,-6.61914 0.25976,-4.12305 c 0.7935,-4.32618 2.83355,-7.90744 2.99219,-10.99414 0,-0.0416 0.022,-0.0604 0.0566,-0.0644 z m 2.76367,3.93164 c -0.2872,0.009 -1.05273,2.00933 -1.05273,5.31836 0,2.9866 0.15862,5.43164 0.35352,5.43164 0.1949,0 7.44106,2.475 16.10156,5.5 19.1089,6.67445 17.70705,6.67993 17.34375,-0.0937 l -0.29883,-5.5918 -14,-4.51563 c -7.7,-2.48351 -15.2375,-4.88542 -16.75,-5.33789 -0.6875,-0.20566 -1.58984,-0.003 -1.58984,-0.39062 0,-0.21822 -0.0412,-0.32246 -0.10743,-0.32031 z m 52.75,1.23242 c -0.73754,-0.0335 -1.78017,0.57545 -3.27929,1.50195 -2.06515,1.27633 -3.2248,1.73359 -4.1211,1.51367 0.51162,2.17183 0.59766,6.77838 0.59766,14.10742 0,6.81615 0.24216,12.39454 0.53906,12.39454 0.2969,0 2.35788,-0.9288 4.58008,-2.0625 l 4.04102,-2.06055 -0.33008,-12.35938 c -0.26125,-9.77563 -0.40474,-12.96153 -2.02735,-13.03515 z m -66.79101,21.64258 c -1.86734,0.0795 -3.98146,1.22705 -9.6211,4.28515 l -9.02343,4.89258 12.92578,4.07617 c 7.1087,2.24142 25.52383,8.07099 40.92383,12.95508 l 28,8.88086 6.0957,-3.35742 c 3.15071,-1.73529 6.25272,-3.02537 7.74023,-3.40625 1.90238,-1.47978 4.25408,-2.95117 4.59375,-2.95117 2.5699,0 0.75191,-1.83757 -2.40429,-2.42969 -1.9113,-0.35857 -5.1738,-1.39207 -7.25,-2.29688 -2.0761,-0.90481 -4.14581,-1.5515 -4.59961,-1.43554 -0.6708,0.17139 -9.10748,-2.1631 -26.86328,-7.4336 -1.3414,-0.39817 -1.751,0.27709 -2,3.29688 -0.3132,3.79733 -0.3125,3.79887 -5.3125,4.07031 -7.8767,0.42762 -11.80569,-2.46467 -11.33789,-8.3457 l 0.32421,-4.0625 0.0176,-0.42578 -6.99414,-2.02149 c -3.8552,-1.11403 -8.99131,-2.673 -11.41211,-3.46289 -1.65056,-0.53856 -2.68233,-0.87582 -3.80273,-0.82812 z m 26.58789,2.27734 c -0.023,0.007 -0.0371,0.0222 -0.0371,0.0508 0,3.54993 -4.79869,12.08372 -1.26562,13.43945 3.20389,1.22945 7.4708,0.63232 8.1621,-1.14257 1.8132,-4.65526 0.11282,-11.05663 -1.95898,-11.35938 -1.1,-0.16075 -3.1684,-0.57967 -4.5957,-0.92969 -0.0865,-0.0212 -0.23558,-0.0791 -0.30469,-0.0586 z m -48.55273,11.08789 c -1.06021,0.008 -7.33204,16.86923 -7.33204,19.71094 0,0.65878 4.6125,2.62779 10.25,4.375 4.66885,1.44699 7.95445,2.65999 10.03516,3.69531 6.0353,1.72929 23.64843,7.28727 36.71484,11.55078 25.4718,8.31135 28.53302,9.107 28.82032,7.47461 0.63932,-4.1065 1.92088,-8.77676 2.67968,-13.79687 0.7158,-4.125 1.23339,-7.52459 1.15039,-7.55469 -4.7268,-1.71269 -81.52637,-25.46108 -82.31835,-25.45508 z m 107.05273,15.45508 c -0.0431,-0.003 -0.0878,0.004 -0.13281,0.0215 -2.15884,0.84019 -6.07042,2.61917 -8.43164,2.92383 -0.39972,0.69797 -2.13435,1.81559 -5.16602,3.31055 l -6.30664,3.10937 -2.33789,14.84375 -2.33984,14.84571 -29.19141,22 -29.19336,22 -0.64062,8.90234 c -0.80611,11.18326 -0.81952,17.59766 -0.0352,17.59766 0.6549,0 18.94188,-8.5129 45.39258,-21.13086 9.075,-4.3291 21.07341,-10.00907 26.66211,-12.6211 12.2288,-5.71558 11.01558,-1.94542 11.89648,-36.99804 0.36949,-14.70491 0.63651,-29.99761 1.07617,-34.49414 -0.28013,-2.34342 -0.67323,-4.26417 -1.25195,-4.31055 z m -117.13477,9.06836 c -0.23635,0.0192 -0.41467,0.0623 -0.5332,0.13086 -2.5565,1.4795 -48.57981,36.83093 -48.63281,37.35547 -0.0276,0.275 5.23039,2.50085 11.68359,4.94726 5.28558,2.00379 8.53968,3.33712 10.50586,4.39258 0.77718,-0.36727 9.95813,3.6034 32.875,12.66016 28.4897,11.25914 26.36991,10.72839 30.25391,7.55273 1.6029,-1.31059 3.58443,-2.11116 4.42383,-1.78906 1.0939,0.41977 1.34653,0.1285 0.89843,-1.03906 -0.425,-1.10719 -0.19112,-1.45822 0.73828,-1.10157 0.7489,0.28738 1.51362,-0.2033 1.69922,-1.09179 0.1856,-0.88849 9.30653,-8.90983 20.26953,-17.82422 23.9844,-19.5024 25.02286,-18.25273 -27.68164,-33.32617 -3.09576,-0.88538 -13.71414,-4.33652 -14.16796,-5.14649 -2.34436,-0.5347 -5.75651,-1.47988 -9.49219,-2.66601 -6.69016,-2.1242 -11.18537,-3.18911 -12.83985,-3.05469 z m 2.75,8.10156 c 0.825,0.0219 9.88718,3.08265 20.13868,6.80078 l 18.63867,6.75977 -3.63867,3.39844 c -3.0728,2.87072 -3.40518,3.56858 -2.13868,4.47851 1.206,0.86643 1.08078,0.96026 -0.63672,0.48047 -3.50769,-0.97992 -9.229,4.33941 -6.7246,6.25195 1.7581,1.34255 1.73805,1.38499 -0.37305,0.75586 -1.5971,-0.47595 -3.25902,0.11375 -5.82422,2.07031 l -3.58984,2.73829 2.32421,1.39453 c 1.81082,1.0861 1.88262,1.25114 0.32422,0.75 -1.1,-0.35374 -2.24597,-0.72156 -2.54687,-0.81836 -1.1204,-0.36019 -7.06081,5.33926 -6.50391,6.24023 0.3184,0.51527 2.13291,1.45097 4.03321,2.07813 4.5554,1.50343 11.97989,-3.41267 8.77539,-5.81055 -1.5779,-1.18071 -1.49919,-1.2534 0.75781,-0.70117 3.6495,0.89298 9.15972,-4.68019 6.32422,-6.39649 -1.5471,-0.93649 -1.39139,-1.01318 0.97461,-0.47656 2.2371,0.50739 3.42243,0.0592 5.76953,-2.18945 l 2.95312,-2.83008 -2.26953,-1.25977 c -1.2477,-0.69283 -1.89987,-1.27542 -1.45117,-1.29492 0.4486,-0.0195 1.74315,0.45962 2.87695,1.06641 1.1338,0.60678 2.341,0.71928 2.6836,0.25 0.3425,-0.46929 1.74804,-1.74963 3.12304,-2.8457 l 2.5,-1.99219 -2.47461,2.79492 c -2.0945,2.36687 -2.2478,2.94565 -1,3.77344 1.0837,0.71892 0.80859,0.82492 -1.04101,0.39843 -3.6799,-0.84837 -9.12697,4.71973 -6.32617,6.4668 1.6451,1.02617 1.59812,1.08078 -0.45508,0.51758 -1.6306,-0.4473 -3.33685,0.16221 -5.87695,2.09961 l -3.57813,2.72851 2.375,1.31836 c 1.307,0.72454 2.00915,1.33207 1.56055,1.35157 -0.4487,0.0195 -1.5737,-0.36821 -2.5,-0.86328 -1.2566,-0.67157 -2.68485,-0.0599 -5.62305,2.4082 l -3.9375,3.30664 3.82813,1.59961 c 4.0644,1.69823 4.23389,1.64599 9.30859,-2.80274 1.7268,-1.51375 1.963,-2.19558 1,-2.89062 -0.8614,-0.62177 -0.66747,-0.71731 0.61133,-0.30078 1.3019,0.42404 3.1284,-0.53909 6,-3.16406 2.2706,-2.07557 5.47664,-4.81981 7.12304,-6.09961 2.9101,-2.26216 2.93821,-2.36686 1.03321,-3.75977 -1.8354,-1.34211 -1.77244,-1.39932 1.00586,-0.89648 2.3022,0.41667 3.75019,-0.12411 6.46679,-2.41211 l 3.5,-2.94727 -2.88867,-1.09766 c -4.8314,-1.83788 -2.37506,-2.07087 2.67774,-0.2539 6.0566,2.17794 6.88391,1.03585 -12.80469,17.67969 l -16.97656,14.35156 -3.50391,-1.47461 c -1.927,-0.81069 -15.20391,-6.21621 -29.50391,-12.01172 -14.3,-5.79551 -26.58974,-10.86223 -27.31054,-11.25976 -1.5213,-0.83912 30.36434,-27.52399 32.81054,-27.45899 z m 1.25586,1.9375 c -3.69736,0.13414 -7.06793,2.32272 -5.66797,4.58789 0.4989,0.80726 0.22054,0.99931 -0.85156,0.58789 -0.875,-0.33577 -2.13804,0.0479 -2.80664,0.85352 -0.6686,0.8056 -1.42931,1.25038 -1.69141,0.98828 -0.59658,-0.59657 -3.23828,1.97833 -3.23828,3.15625 0,0.4788 1.49382,1.41177 3.32032,2.07226 1.8266,0.66049 3.56488,1.20118 3.86328,1.20118 0.2983,0 3.41708,-2.66055 6.92968,-5.91016 l 6.38672,-5.9082 -2.81445,-1.0918 c -0.85354,-0.33098 -1.7715,-0.49861 -2.6875,-0.53516 -0.24808,-0.01 -0.4957,-0.0109 -0.74219,-0.002 z m 9.18555,3.0918 c -0.23377,-0.008 -0.46806,-0.007 -0.70117,0.004 -4.04055,0.18503 -7.78878,3.10192 -5.125,5.08203 1.766,1.31282 1.72656,1.36577 -0.61524,0.83985 -1.7812,-0.40003 -3.2906,0.1409 -5.25,1.88476 -3.4908,3.10689 -3.4731,3.21612 0.8711,5.03125 1.9922,0.83238 3.70955,1.51368 3.81445,1.51368 1.7751,0 5.77128,-6.2778 4.54688,-7.14258 -1.2186,-0.86064 -1.16114,-0.94286 0.32226,-0.46289 1.7364,0.56181 7.69531,-2.9274 7.69531,-4.50586 0,-0.40391 -1.57218,-1.25306 -3.49218,-1.88672 -0.66621,-0.21987 -1.36509,-0.33271 -2.06641,-0.35742 z m -12.94141,2.38476 c 0.55,0 1.675,0.43755 2.5,0.97071 0.825,0.53316 1.05,0.96875 0.5,0.96875 -0.55,0 -1.675,-0.43559 -2.5,-0.96875 -0.825,-0.53316 -1.05,-0.97071 -0.5,-0.97071 z m 20.71485,0.33203 c -0.94548,0.0756 -1.69445,0.65339 -3.1543,1.80664 -3.8625,3.05139 -3.81034,3.27316 1.22266,5.19532 5.3945,2.06015 4.85801,2.14008 8.07031,-1.21289 l 2.73047,-2.84766 -4.53711,-1.73242 c -2.24465,-0.85724 -3.38656,-1.28454 -4.33203,-1.20899 z m 11.98828,4.27344 c -4.34026,0.0107 -9.6548,3.73077 -6.95508,5.61914 0.8174,0.57174 0.53781,0.67776 -0.80469,0.30469 -2.9025,-0.80661 -8.63288,5.03684 -6.42578,6.55273 1.1709,0.80421 1.05481,0.89981 -0.55469,0.45313 -1.3596,-0.37732 -3.17713,0.38637 -5.46093,2.29297 l -3.42383,2.85742 2.96094,1.60156 c 3.3951,1.83742 2.76456,2.23345 -0.89844,0.56446 -2.1169,-0.96452 -2.94538,-0.72474 -6.04688,1.75 -4.4791,3.57389 -4.46831,3.79085 0.27149,5.21093 2.1263,0.63706 4.07091,1.15821 4.32031,1.15821 2.6727,0 13.75843,-12.57118 12.14453,-13.77149 -1.6552,-1.23099 -1.56002,-1.2942 0.98438,-0.66992 2.2702,0.55701 3.38763,0.1433 5.76953,-2.13867 l 2.95312,-2.83008 -2.26953,-1.25977 c -1.2477,-0.69283 -1.89987,-1.27542 -1.45117,-1.29492 0.4486,-0.0195 1.73176,0.45344 2.85156,1.05274 1.6947,0.90697 2.5212,0.62569 4.9336,-1.68555 3.7699,-3.61179 3.6722,-4.09007 -1.125,-5.52734 -0.55405,-0.166 -1.1534,-0.24177 -1.77344,-0.24024 z m -43.60742,2.03906 c -4.30002,-0.0653 -8.84095,3.92613 -5.89063,6.1211 1.6116,1.19895 1.51704,1.26781 -0.91406,0.67187 -2.6606,-0.65218 -8.79102,2.47805 -8.79102,4.48828 0,0.45073 3.4875,2.22273 7.75,3.9375 0.3628,0.14596 0.62201,0.24809 0.95704,0.38282 l 2.77734,-3.07422 c 2.5244,-2.79283 2.75365,-3.45694 1.49805,-4.34375 -1.2009,-0.84811 -1.12517,-0.93029 0.39843,-0.4336 2.0838,0.67934 9.02855,-3.95098 8.12305,-5.41601 -0.2929,-0.47403 -2.13932,-1.39281 -4.10352,-2.04102 -0.58191,-0.19205 -1.19039,-0.28363 -1.80468,-0.29297 z m 25.8125,0.29883 c -1.75201,0.004 -3.3986,0.55763 -4.58203,1.69141 -3.5068,3.35971 -3.51386,3.89023 -0.0762,5.13476 1.5125,0.54755 3.44111,1.27764 4.28711,1.62305 1.4511,0.59243 7.90383,-4.84505 6.89063,-5.80664 -1.83893,-1.74523 -4.26696,-2.64834 -6.51953,-2.64258 z m -17.79493,2.80078 c -1.03906,0.0706 -1.80877,0.86244 -3.56445,2.67383 l -3.12109,3.2207 3.95117,1.55079 c 3.95,1.5516 3.94911,1.55229 7.07031,-1.66797 l 3.1211,-3.22071 -3.94922,-1.55078 c -1.72813,-0.67882 -2.69965,-1.06074 -3.50782,-1.00586 z m 8.04493,2.92969 -3.13086,3.39844 c -1.7223,1.8688 -4.83356,4.68769 -6.91407,6.26367 -2.08048,1.57598 -3.40626,3.22074 -2.94726,3.65625 3.5686,3.38577 7.93602,3.72268 11.14062,0.85938 3.9285,-3.51007 3.93418,-3.72705 0.14258,-5.04883 -1.6781,-0.58498 -2.85297,-1.2642 -2.60937,-1.50781 0.2436,-0.24366 2.02026,0.21632 3.94726,1.02148 3.4395,1.43711 3.5605,1.40482 6.6543,-1.78711 l 3.15234,-3.25195 -4.71679,-1.80078 z m -15.63672,3.80664 c -1.06112,0.0697 -1.93931,0.87549 -3.94727,2.7168 l -3.33789,3.06055 c 8.34866,3.35728 8.36942,3.25502 11.70117,-0.22266 l 2.81055,-2.93359 -3.80273,-1.58985 c -1.66364,-0.69512 -2.59852,-1.08543 -3.42383,-1.03125 z m -41.46485,9.49024 c -0.3064,0 -0.55664,3.375 -0.55664,7.5 0,4.125 0.21587,7.5 0.48047,7.5 0.2646,0 3.33552,-1.40856 6.82422,-3.12891 l 6.34375,-3.12695 11.9082,5.19531 c 6.55,2.85802 12.20426,5.67306 12.56446,6.25586 l 29.91992,11.63476 c 1.65122,-0.60623 3.37666,-0.28468 5.51367,1.6543 l 1.21094,1.75195 0.41211,12.3418 c 0.226,6.78803 0.61453,12.52957 0.86523,12.75781 0.2508,0.22824 1.48188,0.73011 2.73438,1.11524 l 2.27734,0.69922 -0.27734,-14.66016 -0.27735,-14.66016 -20,-8.24609 c -9.13103,-1.77454 -19.86281,-9.11274 -25.60937,-11.44141 -5.74656,-2.32867 -7.8098,-2.20389 -10.03516,-4.09375 -2.3896,-0.45642 -6.21509,-1.79659 -11.76562,-4.09375 -6.5865,-2.7259 -12.22691,-4.95507 -12.53321,-4.95507 z m 11.95899,14.15039 c -0.264,0.26403 -0.60065,3.74705 -0.74805,7.74023 l -0.26758,7.25977 17,8.84375 17,8.8457 9.5,-4.81641 c 3.79353,-1.94979 6.4624,-4.79652 8.77735,-7.0332 -0.83674,-0.34623 -50.99981,-21.1017 -51.26172,-20.83984 z m -4.89063,0.84961 c -0.2065,0 -2.93776,1.13112 -6.06836,2.51562 -3.1306,1.38449 -6.18149,2.21517 -6.77929,1.8457 -0.5979,-0.36948 -0.80685,-0.21933 -0.46485,0.33399 0.3491,0.56488 -3.98596,3.11396 -9.88476,5.8125 -5.7781,2.64326 -10.68726,5.10224 -10.91016,5.46289 -0.2228,0.36065 2.38266,2.02005 5.78906,3.6875 l 6.19336,3.03125 11.25,-4.99609 11.25,-4.99414 0,-6.34961 c 0,-3.49261 -0.1684,-6.34961 -0.375,-6.34961 z m 0.70508,15.59375 -9.66601,4.38281 c -11.6913,5.30223 -11.9012,4.04057 1.75,10.5039 6.2783,2.97254 14.0408,6.70574 17.25,8.29688 l 5.83593,2.89258 8.48438,-3.78711 c 11.0259,-4.92179 11.45831,-4.10251 -7.33399,-13.83594 z m -41.27344,2.03906 c -1.33631,-0.0471 -2.05664,0.37374 -2.05664,1.28515 0,2.39284 49.95075,26.70169 52.62305,25.60938 2.9327,-1.19872 -4.02778,-5.25283 -39.23828,-22.85547 -5.16388,-2.58156 -9.10093,-3.96058 -11.32813,-4.03906 z m -3.13281,3.36133 0.29102,8.14453 0.28906,8.14453 19.21094,11.10742 c 7.35066,4.25032 21.24815,12.2536 29.24804,16.98828 -0.11169,-1.79322 -0.0577,-5.17551 -0.17187,-9.05859 l -0.28711,-9.75195 -12,-6.31836 c -6.6,-3.47453 -17.52926,-9.2271 -24.28906,-12.78516 z m 106.26172,4.00586 c -0.897,0 -44.12289,19.60328 -44.86719,20.34765 -0.2202,0.22021 -0.26927,4.2499 -0.10937,8.95508 l 0.29101,8.55469 22.5,-9.74219 22.5,-9.74219 0.28711,-9.1875 c 0.1582,-5.0527 -0.11236,-9.18554 -0.60156,-9.18554 z m -48.95117,21 c -3.0854,0 -4.23608,2.46727 -4.33008,9.28515 -0.0553,4.00794 -0.0785,9.68865 -0.16406,12.34766 0.34991,0.21344 0.80997,0.48812 1.08203,0.6582 0.19761,-0.41456 0.53173,-0.85173 1.04101,-1.2539 1.72891,-1.36525 3.946,-21.03711 2.3711,-21.03711 z"
       id="path3401"
       inkscape:connector-curvature="0"
       sodipodi:nodetypes="cccccccccccscccscccssccccccccccccccccccscccccccccccsccssccccscscsccccccscccccccsssccscscsscsscccsscccccccssccscsccccsscsssscccsscsccccccccccccccsssscccccscssscsssscsccccccscscccsccssccscccssccccscsccccsccccccssscscccssccscccccssscsccccccccscssccsscssssscccccccssssscccsssscscccsssssccsscccccccccsscscccccccccccscsscscccccccscccsssccccccccccccccscssccccccccssccscccccssccscccscsssssccccccccccsccccccssccccs"
       inkscape:export-xdpi="199.95847"
       inkscape:export-ydpi="199.95847" />
  </g>
</svg>
